<svg xmlns="http://www.w3.org/2000/svg" xmlns:xlink="http://www.w3.org/1999/xlink" width="464" zoomAndPan="magnify" viewBox="0 0 348 247.499998" height="330" preserveAspectRatio="xMidYMid meet" version="1.0"><path fill="#050506" d="M 63.007812 144.511719 L 44.359375 144.511719 L 42.453125 144.785156 C 35.691406 145.855469 33.695312 154.714844 40.988281 157.027344 C 47.042969 158.953125 54.054688 157.625 59.414062 162.152344 C 65.140625 166.984375 65.667969 177.269531 61.53125 183.226562 C 54.152344 193.851562 38.0625 190.269531 27.019531 190.914062 L 27.019531 181.328125 L 45.671875 181.328125 C 47.097656 181.328125 50.105469 180.378906 51.304688 179.550781 C 55.171875 176.871094 54.371094 170.195312 49.65625 168.632812 C 41.691406 165.988281 31.292969 168.492188 27.199219 158.382812 C 21.933594 145.375 32.914062 134.269531 45.878906 135.132812 C 51.039062 135.605469 57.21875 134.542969 62.253906 135.132812 C 62.570312 135.171875 62.816406 135.160156 63.007812 135.472656 L 63.007812 144.515625 Z M 63.007812 144.511719 " fill-opacity="1" fill-rule="nonzero"/><path fill="#050506" d="M 255.160156 150.175781 L 255.160156 191.238281 C 255.160156 194.257812 252.535156 199.386719 250.574219 201.691406 C 247.113281 205.746094 242.15625 207.902344 236.835938 208.121094 L 236.835938 201.476562 C 240.882812 199.433594 244.304688 196.046875 245.097656 191.429688 C 245.46875 189.292969 245.035156 187.398438 245.125 185.25 C 243.195312 187.164062 241.152344 188.445312 238.414062 188.894531 C 227.5625 190.675781 222.539062 183.761719 222.007812 173.808594 C 221.371094 161.898438 221.796875 150.890625 236.28125 150.164062 C 242.476562 149.855469 248.9375 150.417969 255.15625 150.175781 Z M 245.128906 159.324219 L 237.386719 159.324219 C 236.699219 159.324219 234.789062 160.265625 234.246094 160.761719 C 231.328125 163.410156 231.449219 174.082031 233.347656 177.304688 C 235.472656 180.917969 241.394531 181.054688 243.644531 177.558594 C 244.328125 176.503906 245.128906 173.730469 245.128906 172.503906 Z M 245.128906 159.324219 " fill-opacity="1" fill-rule="nonzero"/><path fill="#060607" d="M 216.773438 190.695312 L 206.738281 190.695312 L 206.738281 166.625 C 206.738281 165.863281 206.132812 163.296875 205.820312 162.53125 C 205.277344 161.207031 204.035156 159.886719 202.707031 159.320312 C 202.054688 159.042969 200.296875 158.671875 199.652344 158.671875 L 193 158.671875 L 193 190.695312 L 182.964844 190.695312 L 182.746094 149.738281 L 202.050781 149.738281 C 204.335938 149.738281 208.820312 151.703125 210.648438 153.136719 C 215.074219 156.613281 216.492188 161.605469 216.78125 167.050781 C 217.1875 174.800781 216.457031 182.910156 216.773438 190.699219 Z M 216.773438 190.695312 " fill-opacity="1" fill-rule="nonzero"/><path fill="#040405" d="M 140.4375 190.695312 L 130.402344 190.695312 C 130.105469 183.339844 130.800781 175.679688 130.410156 168.355469 C 130.222656 164.789062 129.589844 159.929688 125.398438 158.984375 C 125.066406 158.90625 123.5625 158.667969 123.3125 158.667969 L 116.769531 158.667969 L 116.441406 158.996094 L 116.441406 190.695312 L 106.410156 190.695312 L 106.410156 149.738281 L 125.492188 149.738281 C 127.65625 149.738281 131.710938 151.363281 133.527344 152.609375 C 138.785156 156.207031 140.144531 161.855469 140.441406 167.921875 C 140.808594 175.402344 140.148438 183.183594 140.433594 190.695312 Z M 140.4375 190.695312 " fill-opacity="1" fill-rule="nonzero"/><path fill="#030304" d="M 177.078125 190.695312 L 154.503906 190.695312 C 154.28125 190.695312 152.421875 190.214844 152.042969 190.101562 C 139.566406 186.433594 141.710938 166.515625 155.59375 166.515625 L 167.042969 166.515625 L 167.042969 163.355469 C 167.042969 162.175781 165.941406 160.25 164.972656 159.542969 C 164.152344 158.945312 161.796875 158.234375 160.828125 158.234375 L 149.59375 158.234375 L 149.59375 149.742188 C 157.492188 150.078125 169.53125 147.925781 174.765625 155.421875 C 175.703125 156.765625 177.074219 160.03125 177.074219 161.613281 L 177.074219 190.695312 Z M 167.042969 173.050781 L 158.648438 173.050781 C 158.175781 173.050781 156.535156 173.484375 156.027344 173.699219 C 154.617188 174.289062 153.695312 175.554688 153.519531 177.078125 C 153.378906 178.363281 153.421875 180.855469 154.085938 181.964844 C 154.5625 182.769531 156.664062 184.160156 157.558594 184.160156 L 167.046875 184.160156 L 167.046875 173.050781 Z M 167.042969 173.050781 " fill-opacity="1" fill-rule="nonzero"/><path fill="#050506" d="M 72.695312 186.457031 C 67.089844 181.160156 66.980469 170.777344 68.054688 163.601562 C 70.785156 145.363281 98.074219 145.234375 101.105469 163.203125 C 102.054688 168.816406 102.078125 178.125 99.171875 183.132812 C 93.921875 192.171875 80.109375 193.457031 72.695312 186.457031 Z M 83.898438 158.953125 C 78.449219 159.46875 77.726562 164.765625 77.625 169.242188 C 77.488281 175.125 77.972656 182.640625 85.804688 181.765625 C 90.4375 181.246094 91.339844 176.570312 91.578125 172.722656 C 91.925781 167.089844 91.714844 158.207031 83.898438 158.953125 Z M 83.898438 158.953125 " fill-opacity="1" fill-rule="nonzero"/><path fill="#050406" d="M 274.960938 150.023438 C 292.214844 148.269531 296.101562 162.390625 294.171875 176.613281 C 291.632812 195.3125 264.722656 195.730469 261.152344 178.070312 C 258.855469 166.710938 260.890625 151.453125 274.964844 150.023438 Z M 282.128906 180.160156 C 285.03125 177.300781 284.9375 166.988281 283.742188 163.34375 C 281.910156 157.753906 273.929688 157.308594 271.628906 162.59375 C 270.160156 165.960938 270.074219 175.976562 272.117188 179.09375 C 274.203125 182.273438 279.457031 182.789062 282.128906 180.160156 Z M 282.128906 180.160156 " fill-opacity="1" fill-rule="nonzero"/><path fill="#070608" d="M 309.25 136.230469 L 309.25 179.039062 C 309.25 179.902344 309.898438 181.492188 310.695312 181.953125 C 310.84375 182.039062 311.898438 182.417969 311.976562 182.417969 L 316.667969 182.417969 L 316.667969 190.914062 L 309.578125 190.914062 C 303.886719 190.914062 299.058594 185.226562 299.210938 179.707031 L 299.25 138.988281 L 309.253906 136.234375 Z M 309.25 136.230469 " fill-opacity="1" fill-rule="nonzero"/><path fill="#feca0e" d="M 204.160156 38.527344 L 204.171875 112.28125 C 204.722656 119.03125 197.558594 128.933594 190.527344 128.933594 L 113.207031 128.933594 L 113.207031 53.230469 C 113.207031 47.128906 120.753906 38.527344 127.058594 38.527344 Z M 186.929688 55.082031 L 153.441406 55.074219 C 141.828125 55.8125 131.175781 64.617188 133.992188 77.128906 C 135.632812 84.417969 142.472656 89.515625 149.851562 89.71875 C 146.832031 84.945312 147.945312 78.984375 152.246094 75.449219 C 160.289062 68.839844 175.210938 77.875 183.433594 68.257812 C 186.75 64.375 186.824219 59.960938 186.929688 55.082031 Z M 130.65625 112.164062 L 162.828125 112.15625 C 168.351562 111.78125 173.632812 110.378906 177.882812 106.71875 C 189.78125 96.488281 183.035156 78.207031 167.738281 77.523438 C 169.050781 80.28125 169.851562 82.289062 169.203125 85.414062 C 165.476562 103.375 139.140625 85.402344 131.925781 102.425781 C 130.632812 105.488281 130.753906 108.882812 130.65625 112.164062 Z M 130.65625 112.164062 " fill-opacity="1" fill-rule="nonzero"/><path fill="#050500" d="M 186.929688 55.082031 C 186.828125 59.960938 186.75 64.375 183.433594 68.257812 C 175.210938 77.875 160.289062 68.839844 152.246094 75.449219 C 147.945312 78.984375 146.832031 84.945312 149.851562 89.71875 C 142.472656 89.515625 135.632812 84.417969 133.992188 77.128906 C 131.179688 64.617188 141.832031 55.8125 153.441406 55.074219 Z M 186.929688 55.082031 " fill-opacity="1" fill-rule="nonzero"/><path fill="#e52628" d="M 130.65625 112.164062 C 130.753906 108.882812 130.632812 105.488281 131.925781 102.425781 C 139.140625 85.402344 165.476562 103.375 169.203125 85.414062 C 169.851562 82.292969 169.054688 80.28125 167.738281 77.523438 C 183.035156 78.207031 189.78125 96.488281 177.882812 106.71875 C 173.632812 110.378906 168.351562 111.78125 162.828125 112.15625 Z M 130.65625 112.164062 " fill-opacity="1" fill-rule="nonzero"/></svg>