<svg xmlns="http://www.w3.org/2000/svg" xmlns:xlink="http://www.w3.org/1999/xlink" width="464" zoomAndPan="magnify" viewBox="0 0 348 247.499998" height="330" preserveAspectRatio="xMidYMid meet" version="1.0"><defs><clipPath id="35f0e5e141"><path d="M 4 3 L 343.523438 3 L 343.523438 243.253906 L 4 243.253906 Z M 4 3 " clip-rule="nonzero"/></clipPath><clipPath id="30b5da56ff"><path d="M 11.585938 3.75 L 336.414062 3.75 C 340.136719 3.75 343.152344 6.765625 343.152344 10.484375 L 343.152344 236.515625 C 343.152344 240.238281 340.136719 243.253906 336.414062 243.253906 L 11.585938 243.253906 C 7.863281 243.253906 4.847656 240.238281 4.847656 236.515625 L 4.847656 10.484375 C 4.847656 6.765625 7.863281 3.75 11.585938 3.75 Z M 11.585938 3.75 " clip-rule="nonzero"/></clipPath><clipPath id="f5495bbfc7"><path d="M 4.847656 3.75 L 343.164062 3.75 L 343.164062 243.265625 L 4.847656 243.265625 Z M 4.847656 3.75 " clip-rule="nonzero"/></clipPath><clipPath id="249b1acb09"><path d="M 11.585938 3.75 L 336.40625 3.75 C 340.125 3.75 343.140625 6.765625 343.140625 10.488281 L 343.140625 236.511719 C 343.140625 240.234375 340.125 243.25 336.40625 243.25 L 11.585938 243.25 C 7.863281 243.25 4.847656 240.234375 4.847656 236.511719 L 4.847656 10.488281 C 4.847656 6.765625 7.863281 3.75 11.585938 3.75 Z M 11.585938 3.75 " clip-rule="nonzero"/></clipPath></defs><g clip-path="url(#35f0e5e141)"><g clip-path="url(#30b5da56ff)"><path fill="#ffffff" d="M 4.847656 3.75 L 343.523438 3.75 L 343.523438 243.253906 L 4.847656 243.253906 Z M 4.847656 3.75 " fill-opacity="1" fill-rule="nonzero"/></g></g><g clip-path="url(#f5495bbfc7)"><g clip-path="url(#249b1acb09)"><path stroke-linecap="butt" transform="matrix(0.748488, 0, 0, 0.748488, 4.848551, 3.751425)" fill="none" stroke-linejoin="miter" d="M 9.00133 -0.00190433 L 442.970039 -0.00190433 C 447.93839 -0.00190433 451.967346 4.027052 451.967346 9.000621 L 451.967346 310.974037 C 451.967346 315.947607 447.93839 319.976563 442.970039 319.976563 L 9.00133 319.976563 C 4.027761 319.976563 -0.00119531 315.947607 -0.00119531 310.974037 L -0.00119531 9.000621 C -0.00119531 4.027052 4.027761 -0.00190433 9.00133 -0.00190433 Z M 9.00133 -0.00190433 " stroke="#000000" stroke-width="2" stroke-opacity="1" stroke-miterlimit="4"/></g></g><path fill="#050506" d="M 73.765625 141.953125 L 57.386719 141.953125 L 55.710938 142.191406 C 49.777344 143.132812 48.023438 150.914062 54.425781 152.945312 C 59.746094 154.636719 65.902344 153.472656 70.609375 157.445312 C 75.636719 161.691406 76.101562 170.726562 72.46875 175.957031 C 65.988281 185.289062 51.855469 182.140625 42.160156 182.707031 L 42.160156 174.289062 L 58.539062 174.289062 C 59.792969 174.289062 62.433594 173.457031 63.488281 172.726562 C 66.886719 170.371094 66.179688 164.511719 62.039062 163.136719 C 55.042969 160.8125 45.914062 163.015625 42.316406 154.136719 C 37.691406 142.710938 47.335938 132.960938 58.722656 133.71875 C 63.253906 134.128906 68.679688 133.195312 73.105469 133.71875 C 73.382812 133.75 73.597656 133.742188 73.765625 134.015625 L 73.765625 141.957031 Z M 73.765625 141.953125 " fill-opacity="1" fill-rule="nonzero"/><path fill="#050506" d="M 242.523438 146.925781 L 242.523438 182.992188 C 242.523438 185.644531 240.21875 190.148438 238.496094 192.171875 C 235.457031 195.734375 231.105469 197.628906 226.433594 197.820312 L 226.433594 191.984375 C 229.984375 190.191406 232.992188 187.214844 233.6875 183.160156 C 234.011719 181.28125 233.632812 179.621094 233.710938 177.730469 C 232.015625 179.414062 230.222656 180.539062 227.816406 180.933594 C 218.285156 182.496094 213.875 176.425781 213.40625 167.683594 C 212.851562 157.226562 213.222656 147.558594 225.945312 146.917969 C 231.386719 146.648438 237.058594 147.140625 242.523438 146.925781 Z M 233.714844 154.964844 L 226.914062 154.964844 C 226.3125 154.964844 224.636719 155.789062 224.15625 156.226562 C 221.59375 158.554688 221.699219 167.925781 223.367188 170.753906 C 225.234375 173.925781 230.433594 174.046875 232.414062 170.976562 C 233.011719 170.050781 233.714844 167.613281 233.714844 166.539062 Z M 233.714844 154.964844 " fill-opacity="1" fill-rule="nonzero"/><path fill="#060607" d="M 208.808594 182.515625 L 200 182.515625 L 200 161.375 C 200 160.703125 199.46875 158.453125 199.191406 157.777344 C 198.714844 156.613281 197.625 155.457031 196.457031 154.960938 C 195.886719 154.714844 194.339844 154.390625 193.773438 154.390625 L 187.933594 154.390625 L 187.933594 182.515625 L 179.121094 182.515625 L 178.929688 146.546875 L 195.878906 146.546875 C 197.886719 146.546875 201.828125 148.269531 203.429688 149.527344 C 207.320312 152.582031 208.566406 156.964844 208.816406 161.75 C 209.175781 168.554688 208.53125 175.679688 208.808594 182.515625 Z M 208.808594 182.515625 " fill-opacity="1" fill-rule="nonzero"/><path fill="#040405" d="M 141.769531 182.515625 L 132.957031 182.515625 C 132.691406 176.054688 133.304688 169.324219 132.964844 162.894531 C 132.796875 159.761719 132.242188 155.496094 128.5625 154.664062 C 128.269531 154.597656 126.949219 154.386719 126.730469 154.386719 L 120.984375 154.386719 L 120.695312 154.675781 L 120.695312 182.511719 L 111.882812 182.511719 L 111.882812 146.542969 L 128.644531 146.542969 C 130.542969 146.542969 134.105469 147.972656 135.699219 149.0625 C 140.320312 152.226562 141.511719 157.183594 141.773438 162.511719 C 142.09375 169.082031 141.515625 175.917969 141.765625 182.511719 Z M 141.769531 182.515625 " fill-opacity="1" fill-rule="nonzero"/><path fill="#030304" d="M 173.949219 182.515625 L 154.121094 182.515625 C 153.925781 182.515625 152.296875 182.09375 151.960938 181.992188 C 141.003906 178.769531 142.886719 161.277344 155.082031 161.277344 L 165.136719 161.277344 L 165.136719 158.503906 C 165.136719 157.46875 164.167969 155.777344 163.316406 155.15625 C 162.597656 154.632812 160.527344 154.007812 159.675781 154.007812 L 149.8125 154.007812 L 149.8125 146.546875 C 156.746094 146.839844 167.320312 144.953125 171.917969 151.535156 C 172.742188 152.714844 173.945312 155.585938 173.945312 156.972656 L 173.945312 182.511719 Z M 165.136719 167.019531 L 157.761719 167.019531 C 157.347656 167.019531 155.910156 167.398438 155.460938 167.585938 C 154.222656 168.105469 153.410156 169.21875 153.257812 170.554688 C 153.132812 171.683594 153.171875 173.871094 153.753906 174.847656 C 154.171875 175.550781 156.019531 176.773438 156.804688 176.773438 L 165.136719 176.773438 Z M 165.136719 167.019531 " fill-opacity="1" fill-rule="nonzero"/><path fill="#050506" d="M 82.273438 178.792969 C 77.347656 174.140625 77.253906 165.023438 78.195312 158.71875 C 80.597656 142.703125 104.5625 142.589844 107.226562 158.371094 C 108.058594 163.300781 108.082031 171.472656 105.527344 175.875 C 100.914062 183.8125 88.785156 184.941406 82.273438 178.792969 Z M 92.113281 154.636719 C 87.328125 155.089844 86.691406 159.742188 86.601562 163.671875 C 86.484375 168.839844 86.910156 175.441406 93.785156 174.671875 C 97.855469 174.214844 98.648438 170.109375 98.859375 166.730469 C 99.164062 161.785156 98.976562 153.980469 92.113281 154.636719 Z M 92.113281 154.636719 " fill-opacity="1" fill-rule="nonzero"/><path fill="#050406" d="M 259.917969 146.792969 C 275.070312 145.253906 278.480469 157.65625 276.785156 170.148438 C 274.558594 186.570312 250.921875 186.9375 247.785156 171.425781 C 245.769531 161.449219 247.558594 148.050781 259.917969 146.792969 Z M 266.207031 173.261719 C 268.757812 170.75 268.675781 161.695312 267.628906 158.492188 C 266.015625 153.582031 259.007812 153.195312 256.988281 157.835938 C 255.699219 160.792969 255.625 169.589844 257.417969 172.324219 C 259.246094 175.117188 263.863281 175.570312 266.207031 173.261719 Z M 266.207031 173.261719 " fill-opacity="1" fill-rule="nonzero"/><path fill="#070608" d="M 290.03125 134.683594 L 290.03125 172.277344 C 290.03125 173.035156 290.601562 174.433594 291.300781 174.835938 C 291.429688 174.914062 292.355469 175.246094 292.425781 175.246094 L 296.542969 175.246094 L 296.542969 182.707031 L 290.320312 182.707031 C 285.320312 182.707031 281.078125 177.710938 281.210938 172.863281 L 281.246094 137.101562 Z M 290.03125 134.683594 " fill-opacity="1" fill-rule="nonzero"/><path fill="#feca0e" d="M 197.734375 48.871094 L 197.742188 113.644531 C 198.226562 119.574219 191.933594 128.273438 185.761719 128.273438 L 117.855469 128.273438 L 117.855469 61.785156 C 117.855469 56.425781 124.480469 48.871094 130.019531 48.871094 Z M 182.601562 63.410156 L 153.1875 63.402344 C 142.988281 64.054688 133.636719 71.785156 136.109375 82.773438 C 137.550781 89.175781 143.558594 93.652344 150.035156 93.832031 C 147.382812 89.640625 148.363281 84.40625 152.140625 81.296875 C 159.203125 75.492188 172.308594 83.429688 179.527344 74.980469 C 182.441406 71.574219 182.507812 67.695312 182.601562 63.410156 Z M 133.179688 113.542969 L 161.433594 113.539062 C 166.285156 113.210938 170.921875 111.976562 174.65625 108.761719 C 185.105469 99.777344 179.183594 83.722656 165.746094 83.121094 C 166.898438 85.542969 167.601562 87.308594 167.03125 90.050781 C 163.757812 105.824219 140.628906 90.042969 134.292969 104.992188 C 133.15625 107.679688 133.265625 110.664062 133.179688 113.542969 Z M 133.179688 113.542969 " fill-opacity="1" fill-rule="nonzero"/><path fill="#050500" d="M 182.601562 63.410156 C 182.511719 67.695312 182.445312 71.574219 179.527344 74.980469 C 172.308594 83.429688 159.203125 75.492188 152.140625 81.296875 C 148.363281 84.40625 147.382812 89.640625 150.035156 93.832031 C 143.554688 93.652344 137.550781 89.175781 136.109375 82.773438 C 133.636719 71.785156 142.992188 64.054688 153.1875 63.402344 Z M 182.601562 63.410156 " fill-opacity="1" fill-rule="nonzero"/><path fill="#e52628" d="M 133.179688 113.542969 C 133.265625 110.664062 133.15625 107.679688 134.292969 104.992188 C 140.628906 90.042969 163.757812 105.824219 167.03125 90.050781 C 167.601562 87.308594 166.902344 85.542969 165.746094 83.121094 C 179.179688 83.722656 185.105469 99.777344 174.65625 108.761719 C 170.921875 111.976562 166.285156 113.210938 161.433594 113.539062 Z M 133.179688 113.542969 " fill-opacity="1" fill-rule="nonzero"/></svg>