<svg xmlns="http://www.w3.org/2000/svg" xmlns:xlink="http://www.w3.org/1999/xlink" width="87" zoomAndPan="magnify" viewBox="0 0 65.25 65.25" height="87" preserveAspectRatio="xMidYMid meet" version="1.0"><path fill="#050506" d="M 10.097656 36.574219 L 6.277344 36.574219 L 5.886719 36.628906 C 4.5 36.847656 4.089844 38.664062 5.585938 39.136719 C 6.824219 39.53125 8.261719 39.261719 9.359375 40.1875 C 10.535156 41.179688 10.640625 43.285156 9.792969 44.507812 C 8.28125 46.683594 4.984375 45.949219 2.722656 46.082031 L 2.722656 44.117188 L 6.542969 44.117188 C 6.835938 44.117188 7.453125 43.921875 7.699219 43.753906 C 8.492188 43.203125 8.328125 41.835938 7.363281 41.515625 C 5.730469 40.972656 3.597656 41.488281 2.761719 39.414062 C 1.679688 36.75 3.929688 34.472656 6.585938 34.652344 C 7.644531 34.746094 8.910156 34.53125 9.941406 34.652344 C 10.007812 34.660156 10.058594 34.65625 10.097656 34.722656 Z M 10.097656 36.574219 " fill-opacity="1" fill-rule="nonzero"/><path fill="#050506" d="M 49.472656 37.734375 L 49.472656 46.148438 C 49.472656 46.765625 48.933594 47.816406 48.53125 48.289062 C 47.824219 49.121094 46.808594 49.5625 45.71875 49.609375 L 45.71875 48.246094 C 46.546875 47.828125 47.246094 47.132812 47.410156 46.1875 C 47.484375 45.75 47.394531 45.359375 47.414062 44.921875 C 47.019531 45.3125 46.601562 45.574219 46.039062 45.667969 C 43.816406 46.03125 42.785156 44.617188 42.679688 42.578125 C 42.546875 40.136719 42.636719 37.878906 45.601562 37.730469 C 46.871094 37.667969 48.195312 37.78125 49.472656 37.734375 Z M 47.414062 39.609375 L 45.828125 39.609375 C 45.6875 39.609375 45.296875 39.800781 45.1875 39.902344 C 44.589844 40.445312 44.613281 42.632812 45 43.292969 C 45.4375 44.03125 46.652344 44.0625 47.113281 43.34375 C 47.25 43.128906 47.417969 42.558594 47.417969 42.308594 L 47.417969 39.609375 Z M 47.414062 39.609375 " fill-opacity="1" fill-rule="nonzero"/><path fill="#060607" d="M 41.605469 46.035156 L 39.550781 46.035156 L 39.550781 41.105469 C 39.550781 40.949219 39.425781 40.421875 39.359375 40.265625 C 39.25 39.992188 38.996094 39.722656 38.722656 39.605469 C 38.589844 39.550781 38.230469 39.472656 38.097656 39.472656 L 36.734375 39.472656 L 36.734375 46.035156 L 34.679688 46.035156 L 34.632812 37.644531 L 38.589844 37.644531 C 39.058594 37.644531 39.976562 38.046875 40.351562 38.339844 C 41.257812 39.054688 41.546875 40.074219 41.605469 41.191406 C 41.691406 42.78125 41.539062 44.441406 41.605469 46.035156 Z M 41.605469 46.035156 " fill-opacity="1" fill-rule="nonzero"/><path fill="#040405" d="M 25.964844 46.035156 L 23.90625 46.035156 C 23.847656 44.53125 23.988281 42.960938 23.910156 41.460938 C 23.871094 40.726562 23.742188 39.734375 22.882812 39.539062 C 22.8125 39.523438 22.507812 39.472656 22.453125 39.472656 L 21.113281 39.472656 L 21.046875 39.542969 L 21.046875 46.035156 L 18.992188 46.035156 L 18.992188 37.644531 L 22.902344 37.644531 C 23.34375 37.644531 24.175781 37.976562 24.546875 38.230469 C 25.625 38.96875 25.902344 40.125 25.964844 41.371094 C 26.039062 42.902344 25.90625 44.496094 25.960938 46.035156 Z M 25.964844 46.035156 " fill-opacity="1" fill-rule="nonzero"/><path fill="#030304" d="M 33.472656 46.035156 L 28.84375 46.035156 C 28.800781 46.035156 28.417969 45.9375 28.339844 45.914062 C 25.785156 45.164062 26.222656 41.082031 29.070312 41.082031 L 31.414062 41.082031 L 31.414062 40.433594 C 31.414062 40.191406 31.191406 39.796875 30.992188 39.652344 C 30.824219 39.53125 30.339844 39.386719 30.140625 39.386719 L 27.839844 39.386719 L 27.839844 37.644531 C 29.457031 37.714844 31.925781 37.273438 32.996094 38.808594 C 33.191406 39.082031 33.472656 39.753906 33.472656 40.078125 Z M 31.414062 42.421875 L 29.695312 42.421875 C 29.597656 42.421875 29.261719 42.511719 29.15625 42.554688 C 28.871094 42.675781 28.679688 42.933594 28.644531 43.246094 C 28.613281 43.507812 28.625 44.019531 28.761719 44.246094 C 28.859375 44.410156 29.289062 44.699219 29.472656 44.699219 L 31.414062 44.699219 Z M 31.414062 42.421875 " fill-opacity="1" fill-rule="nonzero"/><path fill="#050506" d="M 12.082031 45.167969 C 10.933594 44.082031 10.910156 41.957031 11.132812 40.484375 C 11.691406 36.746094 17.28125 36.722656 17.902344 40.402344 C 18.097656 41.554688 18.105469 43.460938 17.507812 44.488281 C 16.433594 46.339844 13.601562 46.601562 12.082031 45.167969 Z M 14.378906 39.53125 C 13.261719 39.636719 13.113281 40.722656 13.09375 41.640625 C 13.066406 42.84375 13.164062 44.386719 14.769531 44.207031 C 15.71875 44.101562 15.902344 43.140625 15.953125 42.351562 C 16.023438 41.199219 15.980469 39.378906 14.378906 39.53125 Z M 14.378906 39.53125 " fill-opacity="1" fill-rule="nonzero"/><path fill="#050406" d="M 53.527344 37.703125 C 57.0625 37.34375 57.859375 40.238281 57.464844 43.152344 C 56.945312 46.980469 51.429688 47.070312 50.699219 43.449219 C 50.230469 41.121094 50.644531 37.996094 53.53125 37.703125 Z M 54.996094 43.878906 C 55.59375 43.292969 55.574219 41.179688 55.328125 40.433594 C 54.953125 39.285156 53.316406 39.195312 52.847656 40.277344 C 52.546875 40.96875 52.527344 43.019531 52.945312 43.660156 C 53.375 44.308594 54.449219 44.417969 54.996094 43.878906 Z M 54.996094 43.878906 " fill-opacity="1" fill-rule="nonzero"/><path fill="#070608" d="M 60.554688 34.875 L 60.554688 43.648438 C 60.554688 43.824219 60.6875 44.152344 60.851562 44.246094 C 60.882812 44.261719 61.097656 44.339844 61.113281 44.339844 L 62.074219 44.339844 L 62.074219 46.082031 L 60.621094 46.082031 C 59.457031 46.082031 58.464844 44.914062 58.496094 43.785156 L 58.507812 35.441406 Z M 60.554688 34.875 " fill-opacity="1" fill-rule="nonzero"/><path fill="#feca0e" d="M 39.011719 14.84375 L 39.015625 29.953125 C 39.128906 31.339844 37.660156 33.367188 36.21875 33.367188 L 20.375 33.367188 L 20.375 17.855469 C 20.375 16.605469 21.921875 14.84375 23.214844 14.84375 Z M 35.480469 18.234375 L 28.617188 18.234375 C 26.238281 18.382812 24.058594 20.1875 24.632812 22.753906 C 24.96875 24.246094 26.371094 25.289062 27.882812 25.332031 C 27.265625 24.355469 27.492188 23.132812 28.375 22.40625 C 30.023438 21.054688 33.078125 22.90625 34.765625 20.933594 C 35.445312 20.140625 35.460938 19.234375 35.480469 18.234375 Z M 23.949219 29.929688 L 30.542969 29.929688 C 31.675781 29.851562 32.757812 29.566406 33.628906 28.816406 C 36.066406 26.71875 34.683594 22.972656 31.550781 22.832031 C 31.816406 23.398438 31.980469 23.808594 31.847656 24.449219 C 31.085938 28.128906 25.6875 24.449219 24.210938 27.9375 C 23.945312 28.5625 23.972656 29.257812 23.949219 29.929688 Z M 23.949219 29.929688 " fill-opacity="1" fill-rule="nonzero"/><path fill="#050500" d="M 35.480469 18.234375 C 35.460938 19.234375 35.445312 20.140625 34.765625 20.933594 C 33.078125 22.90625 30.023438 21.054688 28.375 22.40625 C 27.492188 23.132812 27.265625 24.355469 27.882812 25.332031 C 26.371094 25.289062 24.96875 24.246094 24.632812 22.753906 C 24.058594 20.1875 26.238281 18.382812 28.617188 18.234375 Z M 35.480469 18.234375 " fill-opacity="1" fill-rule="nonzero"/><path fill="#e52628" d="M 23.949219 29.929688 C 23.972656 29.257812 23.945312 28.5625 24.210938 27.9375 C 25.6875 24.449219 31.085938 28.128906 31.847656 24.449219 C 31.980469 23.808594 31.820312 23.398438 31.550781 22.832031 C 34.683594 22.972656 36.066406 26.71875 33.628906 28.816406 C 32.757812 29.566406 31.675781 29.851562 30.542969 29.929688 Z M 23.949219 29.929688 " fill-opacity="1" fill-rule="nonzero"/></svg>